# Blender v2.77 (sub 0) OBJ File: ''
# www.blender.org
mtllib untitled.mtl
o test
v 0.000000 0.000000 0.000000
v 0.167000 0.083000 0.000000
v 0.225000 0.208000 0.000000
v 0.250000 0.420000 0.000000
v 0.230000 0.583000 0.000000
v 0.167000 0.750000 0.000000
v 0.000000 1.000000 0.000000
v -0.167000 0.750000 0.000000
v -0.230000 0.583000 0.000000
v -0.250000 0.420000 0.000000
v -0.225000 0.208000 0.000000
v -0.167000 0.083000 0.000000
vt 0.5000 0.0000
vt 0.8340 0.0830
vt 0.9500 0.2080
vt 1.0000 0.4200
vt 0.9600 0.5830
vt 0.8340 0.7500
vt 0.5000 1.0000
vt 0.1660 0.7500
vt 0.0400 0.5830
vt 0.0000 0.4200
vt 0.5000 0.2080
vt 0.1660 0.0830
vn -0.0000 -0.0000 1.0000
usemtl None
s 1
f 1/1/1 2/2/1 3/3/1
f 1/1/1 3/3/1 4/4/1
f 1/1/1 4/4/1 5/5/1
f 1/1/1 5/5/1 6/6/1
f 1/1/1 6/6/1 7/7/1
f 1/1/1 7/7/1 8/8/1
f 1/1/1 8/8/1 9/9/1
f 1/1/1 9/9/1 10/10/1
f 1/1/1 10/10/1 11/11/1
f 1/1/1 11/11/1 12/12/1
