# 3ds Max Wavefront OBJ Exporter v0.97b - (c)2007 guruware
# File Created: 08.12.2019 17:37:27

mtllib ground.mtl

#
# object ground
#

v  10.0000 0.0000 10.0000
v  -10.0000 0.0000 -10.0000
v  -10.0000 0.0000 10.0000
v  10.0000 0.0000 -10.0000
# 4 vertices

vn 0.0000 1.0000 0.0000
# 1 vertex normals

vt 10.0000 0.0000 0.0000
vt 0.0000 10.0000 0.0000
vt 0.0000 0.0000 0.0000
vt 10.0000 10.0000 0.0000
# 4 texture coords

o ground
g ground
usemtl phong
f 1/1/1 2/2/1 3/3/1 
f 1/1/1 4/4/1 2/2/1 
# 2 faces

